<mxfile host="Electron" modified="2024-06-11T06:54:59.848Z" agent="Mozilla/5.0 (Windows NT 10.0; Win64; x64) AppleWebKit/537.36 (KHTML, like Gecko) draw.io/24.5.1 Chrome/124.0.6367.207 Electron/30.0.6 Safari/537.36" etag="PmO4PLEdiKELAMBDQ4p2" version="24.5.1" type="device" pages="2">
  <diagram id="nfTdDzQuKhqe11trQOSV" name="Page-1">
    <mxGraphModel dx="1434" dy="823" grid="1" gridSize="14" guides="1" tooltips="1" connect="1" arrows="1" fold="1" page="1" pageScale="1" pageWidth="827" pageHeight="1169" math="0" shadow="0">
      <root>
        <mxCell id="0" />
        <mxCell id="1" parent="0" />
        <mxCell id="lyJPuwdB8g_IwmMj8Tjh-1" style="edgeStyle=orthogonalEdgeStyle;rounded=0;orthogonalLoop=1;jettySize=auto;html=1;entryX=0.585;entryY=-0.007;entryDx=0;entryDy=0;fontSize=14;exitX=0.5;exitY=1;exitDx=0;exitDy=0;entryPerimeter=0;" parent="1" source="lyJPuwdB8g_IwmMj8Tjh-39" target="lyJPuwdB8g_IwmMj8Tjh-4" edge="1">
          <mxGeometry relative="1" as="geometry">
            <mxPoint x="247" y="208.12999999999977" as="sourcePoint" />
            <Array as="points">
              <mxPoint x="393" y="160" />
            </Array>
          </mxGeometry>
        </mxCell>
        <mxCell id="lyJPuwdB8g_IwmMj8Tjh-2" value="&lt;font style=&quot;font-size: 16px&quot;&gt;&lt;b&gt;Karmada Concepts&lt;/b&gt;&lt;/font&gt;" style="text;html=1;strokeColor=none;fillColor=none;align=center;verticalAlign=middle;whiteSpace=wrap;rounded=0;" parent="1" vertex="1">
          <mxGeometry x="120" y="50" width="169" height="20" as="geometry" />
        </mxCell>
        <mxCell id="lyJPuwdB8g_IwmMj8Tjh-3" value="" style="group;labelBackgroundColor=#66CC00;rounded=1;" parent="1" vertex="1" connectable="0">
          <mxGeometry x="270" y="210" width="230" height="68.25" as="geometry" />
        </mxCell>
        <mxCell id="lyJPuwdB8g_IwmMj8Tjh-4" value="Propagation Policy" style="rounded=1;whiteSpace=wrap;html=1;fillColor=#cce5ff;strokeColor=#36393d;" parent="lyJPuwdB8g_IwmMj8Tjh-3" vertex="1">
          <mxGeometry width="210" height="48.25" as="geometry" />
        </mxCell>
        <mxCell id="lyJPuwdB8g_IwmMj8Tjh-5" value="Propagation Policy" style="rounded=1;whiteSpace=wrap;html=1;fillColor=#cce5ff;strokeColor=#36393d;" parent="lyJPuwdB8g_IwmMj8Tjh-3" vertex="1">
          <mxGeometry x="10" y="10" width="210" height="48.25" as="geometry" />
        </mxCell>
        <mxCell id="lyJPuwdB8g_IwmMj8Tjh-6" value="&lt;font style=&quot;font-size: 14px&quot;&gt;Resource Binding&lt;/font&gt;" style="rounded=1;whiteSpace=wrap;html=1;fillColor=#cce5ff;strokeColor=#36393d;" parent="lyJPuwdB8g_IwmMj8Tjh-3" vertex="1">
          <mxGeometry x="20" y="20" width="210" height="48.25" as="geometry" />
        </mxCell>
        <mxCell id="lyJPuwdB8g_IwmMj8Tjh-39" value="Resource Template&lt;br&gt;&lt;font style=&quot;font-size: 12px&quot;&gt;(Deployment / Service / ConfigMap / Secret ... )&lt;br&gt;&lt;b&gt;Exactly same with K8s APIs&lt;/b&gt;&lt;br&gt;&lt;/font&gt;" style="rounded=1;whiteSpace=wrap;html=1;fillColor=#cce5ff;strokeColor=#36393d;fontSize=14;" parent="1" vertex="1">
          <mxGeometry x="260" y="90" width="270" height="70" as="geometry" />
        </mxCell>
        <mxCell id="lyJPuwdB8g_IwmMj8Tjh-42" value="&lt;font style=&quot;font-size: 14px&quot;&gt;Override Policy&lt;/font&gt;" style="rounded=1;whiteSpace=wrap;html=1;fillColor=#cce5ff;strokeColor=#36393d;" parent="1" vertex="1">
          <mxGeometry x="542" y="278.25" width="148" height="46" as="geometry" />
        </mxCell>
        <mxCell id="lyJPuwdB8g_IwmMj8Tjh-43" value="" style="endArrow=none;html=1;entryX=0;entryY=0.5;entryDx=0;entryDy=0;startArrow=classic;startFill=1;" parent="1" target="lyJPuwdB8g_IwmMj8Tjh-42" edge="1">
          <mxGeometry width="50" height="50" relative="1" as="geometry">
            <mxPoint x="395" y="301" as="sourcePoint" />
            <mxPoint x="527" y="302.25" as="targetPoint" />
          </mxGeometry>
        </mxCell>
        <mxCell id="lyJPuwdB8g_IwmMj8Tjh-44" value="" style="endArrow=none;html=1;entryX=0;entryY=0.5;entryDx=0;entryDy=0;startArrow=classic;startFill=1;" parent="1" target="lyJPuwdB8g_IwmMj8Tjh-45" edge="1">
          <mxGeometry width="50" height="50" relative="1" as="geometry">
            <mxPoint x="393" y="184.9999999999999" as="sourcePoint" />
            <mxPoint x="535" y="185" as="targetPoint" />
          </mxGeometry>
        </mxCell>
        <mxCell id="lyJPuwdB8g_IwmMj8Tjh-45" value="Propagation Policy" style="rounded=1;whiteSpace=wrap;html=1;fillColor=#cce5ff;strokeColor=#36393d;fontSize=14;" parent="1" vertex="1">
          <mxGeometry x="540" y="160" width="150" height="50" as="geometry" />
        </mxCell>
        <mxCell id="En_39gy8eqksoKSCtPnO-2" value="" style="group" parent="1" vertex="1" connectable="0">
          <mxGeometry x="427" y="476" width="240" height="130" as="geometry" />
        </mxCell>
        <mxCell id="lyJPuwdB8g_IwmMj8Tjh-25" value="" style="rounded=1;whiteSpace=wrap;html=1;fillColor=#f5f5f5;strokeColor=#666666;fontColor=#333333;verticalAlign=bottom;" parent="En_39gy8eqksoKSCtPnO-2" vertex="1">
          <mxGeometry width="240" height="130" as="geometry" />
        </mxCell>
        <mxCell id="lyJPuwdB8g_IwmMj8Tjh-26" value="&lt;span style=&quot;font-size: 11px;&quot;&gt;&lt;font style=&quot;font-size: 11px;&quot;&gt;ClusterB&lt;/font&gt;&lt;/span&gt;" style="text;html=1;strokeColor=none;fillColor=none;align=center;verticalAlign=middle;whiteSpace=wrap;rounded=0;fontStyle=0;fontSize=11;container=0;" parent="En_39gy8eqksoKSCtPnO-2" vertex="1">
          <mxGeometry x="181" width="56" height="20" as="geometry" />
        </mxCell>
        <mxCell id="lyJPuwdB8g_IwmMj8Tjh-27" value="Deployment" style="rounded=1;whiteSpace=wrap;html=1;fillColor=#d5e8d4;strokeColor=#82b366;" parent="En_39gy8eqksoKSCtPnO-2" vertex="1">
          <mxGeometry x="13.000000000000057" y="24" width="78.6" height="32" as="geometry" />
        </mxCell>
        <mxCell id="lyJPuwdB8g_IwmMj8Tjh-28" value="Secret" style="rounded=1;whiteSpace=wrap;html=1;fillColor=#ffe6cc;strokeColor=#d79b00;" parent="En_39gy8eqksoKSCtPnO-2" vertex="1">
          <mxGeometry x="137.83571428571406" y="24" width="54" height="32" as="geometry" />
        </mxCell>
        <mxCell id="lyJPuwdB8g_IwmMj8Tjh-29" value="Configmap" style="rounded=1;whiteSpace=wrap;html=1;fillColor=#f8cecc;strokeColor=#b85450;" parent="En_39gy8eqksoKSCtPnO-2" vertex="1">
          <mxGeometry x="72" y="71" width="72" height="32" as="geometry" />
        </mxCell>
        <mxCell id="En_39gy8eqksoKSCtPnO-3" value="" style="group;rounded=1;" parent="1" vertex="1" connectable="0">
          <mxGeometry x="126" y="475" width="240" height="131" as="geometry" />
        </mxCell>
        <mxCell id="lyJPuwdB8g_IwmMj8Tjh-8" value="" style="rounded=1;whiteSpace=wrap;html=1;fillColor=#f5f5f5;strokeColor=#666666;fontColor=#333333;verticalAlign=bottom;fontStyle=1" parent="En_39gy8eqksoKSCtPnO-3" vertex="1">
          <mxGeometry y="1" width="240" height="130" as="geometry" />
        </mxCell>
        <mxCell id="lyJPuwdB8g_IwmMj8Tjh-9" value="&lt;span style=&quot;font-size: 11px;&quot;&gt;&lt;font style=&quot;font-size: 11px;&quot;&gt;ClusterA&lt;/font&gt;&lt;/span&gt;" style="text;html=1;strokeColor=none;fillColor=none;align=center;verticalAlign=middle;whiteSpace=wrap;rounded=0;fontStyle=0;fontSize=11;" parent="En_39gy8eqksoKSCtPnO-3" vertex="1">
          <mxGeometry x="9.999999999999986" width="56" height="20" as="geometry" />
        </mxCell>
        <mxCell id="lyJPuwdB8g_IwmMj8Tjh-10" value="Deployment" style="rounded=1;whiteSpace=wrap;html=1;fillColor=#d5e8d4;strokeColor=#82b366;" parent="En_39gy8eqksoKSCtPnO-3" vertex="1">
          <mxGeometry x="42.75" y="25" width="78.6" height="32" as="geometry" />
        </mxCell>
        <mxCell id="lyJPuwdB8g_IwmMj8Tjh-11" value="Secret" style="rounded=1;whiteSpace=wrap;html=1;fillColor=#ffe6cc;strokeColor=#d79b00;" parent="En_39gy8eqksoKSCtPnO-3" vertex="1">
          <mxGeometry x="165.35000000000002" y="25" width="54" height="32" as="geometry" />
        </mxCell>
        <mxCell id="lyJPuwdB8g_IwmMj8Tjh-12" value="Configmap" style="rounded=1;whiteSpace=wrap;html=1;fillColor=#f8cecc;strokeColor=#b85450;" parent="En_39gy8eqksoKSCtPnO-3" vertex="1">
          <mxGeometry x="102.35" y="72" width="72" height="32" as="geometry" />
        </mxCell>
        <mxCell id="En_39gy8eqksoKSCtPnO-4" value="" style="group;rounded=1;" parent="1" vertex="1" connectable="0">
          <mxGeometry x="149" y="354" width="202" height="84" as="geometry" />
        </mxCell>
        <mxCell id="lyJPuwdB8g_IwmMj8Tjh-13" value="&lt;br&gt;" style="rounded=1;whiteSpace=wrap;html=1;" parent="En_39gy8eqksoKSCtPnO-4" vertex="1">
          <mxGeometry width="202" height="84" as="geometry" />
        </mxCell>
        <mxCell id="lyJPuwdB8g_IwmMj8Tjh-15" value="ExecutionSpace&lt;br style=&quot;font-size: 11px;&quot;&gt;ClusterA" style="text;html=1;strokeColor=none;fillColor=none;align=left;verticalAlign=middle;whiteSpace=wrap;rounded=0;fontSize=11;" parent="En_39gy8eqksoKSCtPnO-4" vertex="1">
          <mxGeometry x="3.3499999999999943" width="90" height="30" as="geometry" />
        </mxCell>
        <mxCell id="lyJPuwdB8g_IwmMj8Tjh-16" value="work" style="rounded=1;whiteSpace=wrap;html=1;fillColor=#cce5ff;strokeColor=#36393d;" parent="En_39gy8eqksoKSCtPnO-4" vertex="1">
          <mxGeometry x="34.382727272727266" y="46.75" width="48.727272727272734" height="24.5" as="geometry" />
        </mxCell>
        <mxCell id="lyJPuwdB8g_IwmMj8Tjh-17" value="work" style="rounded=1;whiteSpace=wrap;html=1;fillColor=#cce5ff;strokeColor=#36393d;" parent="En_39gy8eqksoKSCtPnO-4" vertex="1">
          <mxGeometry x="90.45389610389608" y="46.75" width="48.727272727272734" height="24.5" as="geometry" />
        </mxCell>
        <mxCell id="lyJPuwdB8g_IwmMj8Tjh-18" value="work" style="rounded=1;whiteSpace=wrap;html=1;fillColor=#cce5ff;strokeColor=#36393d;" parent="En_39gy8eqksoKSCtPnO-4" vertex="1">
          <mxGeometry x="144.98636363636354" y="46.75" width="48.727272727272734" height="24.5" as="geometry" />
        </mxCell>
        <mxCell id="lyJPuwdB8g_IwmMj8Tjh-14" style="edgeStyle=orthogonalEdgeStyle;rounded=0;orthogonalLoop=1;jettySize=auto;html=1;entryX=0.5;entryY=0;entryDx=0;entryDy=0;fontSize=11;exitX=0.5;exitY=0;exitDx=0;exitDy=0;startArrow=classic;startFill=1;" parent="En_39gy8eqksoKSCtPnO-4" source="lyJPuwdB8g_IwmMj8Tjh-16" target="lyJPuwdB8g_IwmMj8Tjh-18" edge="1">
          <mxGeometry x="-23" as="geometry">
            <mxPoint x="116" y="27" as="sourcePoint" />
            <Array as="points">
              <mxPoint x="59" y="30" />
              <mxPoint x="170" y="30" />
            </Array>
          </mxGeometry>
        </mxCell>
        <mxCell id="lyJPuwdB8g_IwmMj8Tjh-22" value="" style="endArrow=classic;html=1;fontSize=11;exitX=0.5;exitY=1;exitDx=0;exitDy=0;entryX=0.5;entryY=0;entryDx=0;entryDy=0;edgeStyle=orthogonalEdgeStyle;rounded=0;" parent="1" source="lyJPuwdB8g_IwmMj8Tjh-6" target="lyJPuwdB8g_IwmMj8Tjh-17" edge="1">
          <mxGeometry relative="1" as="geometry">
            <mxPoint x="360" y="324" as="sourcePoint" />
            <mxPoint x="460" y="324" as="targetPoint" />
            <Array as="points">
              <mxPoint x="395" y="334" />
              <mxPoint x="264" y="334" />
            </Array>
          </mxGeometry>
        </mxCell>
        <mxCell id="lyJPuwdB8g_IwmMj8Tjh-23" value="Apply override" style="edgeLabel;resizable=0;html=1;align=center;verticalAlign=middle;" parent="lyJPuwdB8g_IwmMj8Tjh-22" connectable="0" vertex="1">
          <mxGeometry relative="1" as="geometry" />
        </mxCell>
        <mxCell id="En_39gy8eqksoKSCtPnO-5" value="" style="group" parent="1" vertex="1" connectable="0">
          <mxGeometry x="440" y="354" width="210" height="84" as="geometry" />
        </mxCell>
        <mxCell id="lyJPuwdB8g_IwmMj8Tjh-30" value="&lt;br&gt;" style="rounded=1;whiteSpace=wrap;html=1;container=0;" parent="En_39gy8eqksoKSCtPnO-5" vertex="1">
          <mxGeometry width="210" height="84" as="geometry" />
        </mxCell>
        <mxCell id="lyJPuwdB8g_IwmMj8Tjh-31" value="&lt;font style=&quot;font-size: 11px&quot;&gt;ExecutionSpace&lt;br style=&quot;font-size: 11px&quot;&gt;ClusterB&lt;/font&gt;" style="text;html=1;strokeColor=none;fillColor=none;align=right;verticalAlign=middle;whiteSpace=wrap;rounded=0;container=0;" parent="En_39gy8eqksoKSCtPnO-5" vertex="1">
          <mxGeometry x="51.27999999999997" y="1" width="156.72" height="25" as="geometry" />
        </mxCell>
        <mxCell id="lyJPuwdB8g_IwmMj8Tjh-32" value="work" style="rounded=1;whiteSpace=wrap;html=1;fillColor=#cce5ff;strokeColor=#36393d;container=0;verticalAlign=middle;" parent="En_39gy8eqksoKSCtPnO-5" vertex="1">
          <mxGeometry x="14.936363636363751" y="45.75" width="48.727272727272734" height="24.5" as="geometry" />
        </mxCell>
        <mxCell id="lyJPuwdB8g_IwmMj8Tjh-33" value="work" style="rounded=1;whiteSpace=wrap;html=1;fillColor=#cce5ff;strokeColor=#36393d;container=0;verticalAlign=middle;" parent="En_39gy8eqksoKSCtPnO-5" vertex="1">
          <mxGeometry x="70.63636363636363" y="45.75" width="48.727272727272734" height="24.5" as="geometry" />
        </mxCell>
        <mxCell id="lyJPuwdB8g_IwmMj8Tjh-34" value="work" style="rounded=1;whiteSpace=wrap;html=1;fillColor=#cce5ff;strokeColor=#36393d;container=0;verticalAlign=middle;" parent="En_39gy8eqksoKSCtPnO-5" vertex="1">
          <mxGeometry x="127.4720779220778" y="45.75" width="48.727272727272734" height="24.5" as="geometry" />
        </mxCell>
        <mxCell id="lyJPuwdB8g_IwmMj8Tjh-35" value="" style="endArrow=classic;startArrow=classic;html=1;fontSize=11;entryX=0.5;entryY=0;entryDx=0;entryDy=0;exitX=0.5;exitY=0;exitDx=0;exitDy=0;edgeStyle=orthogonalEdgeStyle;rounded=0;" parent="En_39gy8eqksoKSCtPnO-5" source="lyJPuwdB8g_IwmMj8Tjh-32" target="lyJPuwdB8g_IwmMj8Tjh-34" edge="1">
          <mxGeometry x="-10" width="50" height="50" as="geometry">
            <mxPoint x="-190" y="-40" as="sourcePoint" />
            <mxPoint x="-140" y="-90" as="targetPoint" />
            <Array as="points">
              <mxPoint x="39" y="30" />
              <mxPoint x="152" y="30" />
            </Array>
          </mxGeometry>
        </mxCell>
        <mxCell id="lyJPuwdB8g_IwmMj8Tjh-40" value="" style="endArrow=classic;html=1;fontSize=11;edgeStyle=orthogonalEdgeStyle;rounded=0;exitX=0.5;exitY=1;exitDx=0;exitDy=0;" parent="1" source="lyJPuwdB8g_IwmMj8Tjh-6" target="lyJPuwdB8g_IwmMj8Tjh-33" edge="1">
          <mxGeometry relative="1" as="geometry">
            <mxPoint x="400" y="314" as="sourcePoint" />
            <mxPoint x="257.8175324675324" y="410.75" as="targetPoint" />
            <Array as="points">
              <mxPoint x="395" y="334" />
              <mxPoint x="537" y="334" />
            </Array>
          </mxGeometry>
        </mxCell>
        <mxCell id="lyJPuwdB8g_IwmMj8Tjh-41" value="Apply override" style="edgeLabel;resizable=0;html=1;align=center;verticalAlign=middle;" parent="lyJPuwdB8g_IwmMj8Tjh-40" connectable="0" vertex="1">
          <mxGeometry relative="1" as="geometry" />
        </mxCell>
        <mxCell id="lyJPuwdB8g_IwmMj8Tjh-36" value="" style="endArrow=classic;html=1;exitX=0.5;exitY=1;exitDx=0;exitDy=0;" parent="1" source="lyJPuwdB8g_IwmMj8Tjh-33" target="lyJPuwdB8g_IwmMj8Tjh-29" edge="1">
          <mxGeometry x="919.4545454545455" y="898" width="50" height="50" as="geometry">
            <mxPoint x="446" y="459" as="sourcePoint" />
            <mxPoint x="496" y="409" as="targetPoint" />
          </mxGeometry>
        </mxCell>
        <mxCell id="lyJPuwdB8g_IwmMj8Tjh-37" value="" style="endArrow=classic;html=1;exitX=0.5;exitY=1;exitDx=0;exitDy=0;entryX=0.5;entryY=0;entryDx=0;entryDy=0;" parent="1" source="lyJPuwdB8g_IwmMj8Tjh-34" target="lyJPuwdB8g_IwmMj8Tjh-28" edge="1">
          <mxGeometry x="919.4545454545455" y="898" width="50" height="50" as="geometry">
            <mxPoint x="446" y="459" as="sourcePoint" />
            <mxPoint x="496" y="409" as="targetPoint" />
          </mxGeometry>
        </mxCell>
        <mxCell id="lyJPuwdB8g_IwmMj8Tjh-38" value="" style="endArrow=classic;html=1;entryX=0.5;entryY=0;entryDx=0;entryDy=0;exitX=0.5;exitY=1;exitDx=0;exitDy=0;" parent="1" source="lyJPuwdB8g_IwmMj8Tjh-32" target="lyJPuwdB8g_IwmMj8Tjh-27" edge="1">
          <mxGeometry x="919.4545454545455" y="898" width="50" height="50" as="geometry">
            <mxPoint x="479" y="462" as="sourcePoint" />
            <mxPoint x="486" y="476" as="targetPoint" />
          </mxGeometry>
        </mxCell>
        <mxCell id="lyJPuwdB8g_IwmMj8Tjh-19" value="" style="endArrow=classic;html=1;exitX=0.5;exitY=1;exitDx=0;exitDy=0;" parent="1" source="lyJPuwdB8g_IwmMj8Tjh-18" target="lyJPuwdB8g_IwmMj8Tjh-11" edge="1">
          <mxGeometry x="126" y="354" width="50" height="50" as="geometry">
            <mxPoint x="363.35" y="460" as="sourcePoint" />
            <mxPoint x="413.35" y="410" as="targetPoint" />
          </mxGeometry>
        </mxCell>
        <mxCell id="lyJPuwdB8g_IwmMj8Tjh-20" value="" style="endArrow=classic;html=1;exitX=0.5;exitY=1;exitDx=0;exitDy=0;" parent="1" source="lyJPuwdB8g_IwmMj8Tjh-17" target="lyJPuwdB8g_IwmMj8Tjh-12" edge="1">
          <mxGeometry x="126" y="354" width="50" height="50" as="geometry">
            <mxPoint x="363.35" y="460" as="sourcePoint" />
            <mxPoint x="413.35" y="410" as="targetPoint" />
          </mxGeometry>
        </mxCell>
        <mxCell id="lyJPuwdB8g_IwmMj8Tjh-21" value="" style="endArrow=classic;html=1;exitX=0.5;exitY=1;exitDx=0;exitDy=0;" parent="1" source="lyJPuwdB8g_IwmMj8Tjh-16" target="lyJPuwdB8g_IwmMj8Tjh-10" edge="1">
          <mxGeometry x="126" y="354" width="50" height="50" as="geometry">
            <mxPoint x="195.35" y="488" as="sourcePoint" />
            <mxPoint x="245.35" y="438" as="targetPoint" />
          </mxGeometry>
        </mxCell>
      </root>
    </mxGraphModel>
  </diagram>
  <diagram id="PsyAT6FhDDzftVkndLw7" name="Page-2">
    <mxGraphModel dx="1422" dy="846" grid="1" gridSize="10" guides="1" tooltips="1" connect="1" arrows="1" fold="1" page="1" pageScale="1" pageWidth="827" pageHeight="1169" math="0" shadow="0">
      <root>
        <mxCell id="vmW0C5vPYrDvOBtsV9mp-0" />
        <mxCell id="vmW0C5vPYrDvOBtsV9mp-1" parent="vmW0C5vPYrDvOBtsV9mp-0" />
        <mxCell id="2PO26OI7csFT68rK5z-M-0" style="edgeStyle=orthogonalEdgeStyle;rounded=0;orthogonalLoop=1;jettySize=auto;html=1;entryX=0.5;entryY=0;entryDx=0;entryDy=0;fontSize=14;" parent="vmW0C5vPYrDvOBtsV9mp-1" source="2PO26OI7csFT68rK5z-M-1" target="2PO26OI7csFT68rK5z-M-5" edge="1">
          <mxGeometry relative="1" as="geometry">
            <Array as="points">
              <mxPoint x="545" y="224" />
              <mxPoint x="375" y="224" />
            </Array>
          </mxGeometry>
        </mxCell>
        <mxCell id="2PO26OI7csFT68rK5z-M-1" value="Propagation Policy" style="rounded=0;whiteSpace=wrap;html=1;fillColor=#cce5ff;strokeColor=#36393d;fontSize=14;" parent="vmW0C5vPYrDvOBtsV9mp-1" vertex="1">
          <mxGeometry x="440" y="134" width="210" height="70" as="geometry" />
        </mxCell>
        <mxCell id="2PO26OI7csFT68rK5z-M-2" style="edgeStyle=orthogonalEdgeStyle;rounded=0;orthogonalLoop=1;jettySize=auto;html=1;entryX=0.5;entryY=0;entryDx=0;entryDy=0;fontSize=14;" parent="vmW0C5vPYrDvOBtsV9mp-1" target="2PO26OI7csFT68rK5z-M-5" edge="1">
          <mxGeometry relative="1" as="geometry">
            <mxPoint x="247" y="208.12999999999977" as="sourcePoint" />
            <Array as="points">
              <mxPoint x="247" y="224" />
              <mxPoint x="375" y="224" />
            </Array>
          </mxGeometry>
        </mxCell>
        <mxCell id="2PO26OI7csFT68rK5z-M-3" value="&lt;font style=&quot;font-size: 16px&quot;&gt;&lt;b&gt;Karmada Resources&lt;/b&gt;&lt;/font&gt;" style="text;html=1;strokeColor=none;fillColor=none;align=center;verticalAlign=middle;whiteSpace=wrap;rounded=0;" parent="vmW0C5vPYrDvOBtsV9mp-1" vertex="1">
          <mxGeometry x="110" y="84" width="169" height="20" as="geometry" />
        </mxCell>
        <mxCell id="2PO26OI7csFT68rK5z-M-4" value="" style="group;labelBackgroundColor=#66CC00;" parent="vmW0C5vPYrDvOBtsV9mp-1" vertex="1" connectable="0">
          <mxGeometry x="270" y="244" width="230" height="68.25" as="geometry" />
        </mxCell>
        <mxCell id="2PO26OI7csFT68rK5z-M-5" value="Propagation Policy" style="rounded=0;whiteSpace=wrap;html=1;fillColor=#cce5ff;strokeColor=#36393d;" parent="2PO26OI7csFT68rK5z-M-4" vertex="1">
          <mxGeometry width="210" height="48.25" as="geometry" />
        </mxCell>
        <mxCell id="2PO26OI7csFT68rK5z-M-6" value="Propagation Policy" style="rounded=0;whiteSpace=wrap;html=1;fillColor=#cce5ff;strokeColor=#36393d;" parent="2PO26OI7csFT68rK5z-M-4" vertex="1">
          <mxGeometry x="10" y="10" width="210" height="48.25" as="geometry" />
        </mxCell>
        <mxCell id="2PO26OI7csFT68rK5z-M-7" value="Propagation Binding" style="rounded=0;whiteSpace=wrap;html=1;fillColor=#cce5ff;strokeColor=#36393d;" parent="2PO26OI7csFT68rK5z-M-4" vertex="1">
          <mxGeometry x="20" y="20" width="210" height="48.25" as="geometry" />
        </mxCell>
        <mxCell id="2PO26OI7csFT68rK5z-M-8" value="" style="group;rounded=0;align=right;verticalAlign=middle;" parent="vmW0C5vPYrDvOBtsV9mp-1" vertex="1" connectable="0">
          <mxGeometry x="110" y="354" width="240" height="259" as="geometry" />
        </mxCell>
        <mxCell id="2PO26OI7csFT68rK5z-M-9" value="" style="rounded=0;whiteSpace=wrap;html=1;fillColor=#f5f5f5;strokeColor=#666666;fontColor=#333333;verticalAlign=bottom;fontStyle=1" parent="2PO26OI7csFT68rK5z-M-8" vertex="1">
          <mxGeometry y="130" width="240" height="129" as="geometry" />
        </mxCell>
        <mxCell id="2PO26OI7csFT68rK5z-M-10" value="&lt;span style=&quot;font-size: 11px;&quot;&gt;&lt;font style=&quot;font-size: 11px;&quot;&gt;ClusterA&lt;/font&gt;&lt;/span&gt;" style="text;html=1;strokeColor=none;fillColor=none;align=center;verticalAlign=middle;whiteSpace=wrap;rounded=0;fontStyle=0;fontSize=11;" parent="2PO26OI7csFT68rK5z-M-8" vertex="1">
          <mxGeometry x="9.999999999999986" y="129" width="56" height="20" as="geometry" />
        </mxCell>
        <mxCell id="2PO26OI7csFT68rK5z-M-11" value="Deployment" style="rounded=0;whiteSpace=wrap;html=1;fillColor=#d5e8d4;strokeColor=#82b366;" parent="2PO26OI7csFT68rK5z-M-8" vertex="1">
          <mxGeometry x="42.75" y="154" width="78.6" height="32" as="geometry" />
        </mxCell>
        <mxCell id="2PO26OI7csFT68rK5z-M-12" value="Secret" style="rounded=0;whiteSpace=wrap;html=1;fillColor=#ffe6cc;strokeColor=#d79b00;" parent="2PO26OI7csFT68rK5z-M-8" vertex="1">
          <mxGeometry x="165.35000000000002" y="154" width="54" height="32" as="geometry" />
        </mxCell>
        <mxCell id="2PO26OI7csFT68rK5z-M-13" value="Configmap" style="rounded=0;whiteSpace=wrap;html=1;fillColor=#f8cecc;strokeColor=#b85450;" parent="2PO26OI7csFT68rK5z-M-8" vertex="1">
          <mxGeometry x="102.35" y="196" width="72" height="32" as="geometry" />
        </mxCell>
        <mxCell id="2PO26OI7csFT68rK5z-M-14" value="&lt;br&gt;" style="rounded=0;whiteSpace=wrap;html=1;" parent="2PO26OI7csFT68rK5z-M-8" vertex="1">
          <mxGeometry x="23" width="202" height="98" as="geometry" />
        </mxCell>
        <mxCell id="2PO26OI7csFT68rK5z-M-15" style="edgeStyle=orthogonalEdgeStyle;rounded=0;orthogonalLoop=1;jettySize=auto;html=1;entryX=0.5;entryY=0;entryDx=0;entryDy=0;fontSize=11;exitX=0.5;exitY=0;exitDx=0;exitDy=0;startArrow=classic;startFill=1;" parent="2PO26OI7csFT68rK5z-M-8" source="2PO26OI7csFT68rK5z-M-17" target="2PO26OI7csFT68rK5z-M-19" edge="1">
          <mxGeometry relative="1" as="geometry">
            <mxPoint x="139" y="27" as="sourcePoint" />
            <Array as="points">
              <mxPoint x="82" y="30" />
              <mxPoint x="193" y="30" />
            </Array>
          </mxGeometry>
        </mxCell>
        <mxCell id="2PO26OI7csFT68rK5z-M-16" value="ExecutionSpace&lt;br style=&quot;font-size: 11px;&quot;&gt;ClusterA" style="text;html=1;strokeColor=none;fillColor=none;align=left;verticalAlign=middle;whiteSpace=wrap;rounded=0;fontSize=11;" parent="2PO26OI7csFT68rK5z-M-8" vertex="1">
          <mxGeometry x="26.35" width="90" height="30" as="geometry" />
        </mxCell>
        <mxCell id="2PO26OI7csFT68rK5z-M-17" value="work" style="rounded=0;whiteSpace=wrap;html=1;fillColor=#cce5ff;strokeColor=#36393d;" parent="2PO26OI7csFT68rK5z-M-8" vertex="1">
          <mxGeometry x="57.382727272727266" y="46.75" width="48.727272727272734" height="24.5" as="geometry" />
        </mxCell>
        <mxCell id="2PO26OI7csFT68rK5z-M-18" value="work" style="rounded=0;whiteSpace=wrap;html=1;fillColor=#cce5ff;strokeColor=#36393d;" parent="2PO26OI7csFT68rK5z-M-8" vertex="1">
          <mxGeometry x="113.45389610389608" y="46.75" width="48.727272727272734" height="24.5" as="geometry" />
        </mxCell>
        <mxCell id="2PO26OI7csFT68rK5z-M-19" value="work" style="rounded=0;whiteSpace=wrap;html=1;fillColor=#cce5ff;strokeColor=#36393d;" parent="2PO26OI7csFT68rK5z-M-8" vertex="1">
          <mxGeometry x="167.98636363636354" y="46.75" width="48.727272727272734" height="24.5" as="geometry" />
        </mxCell>
        <mxCell id="2PO26OI7csFT68rK5z-M-20" value="" style="endArrow=classic;html=1;exitX=0.5;exitY=1;exitDx=0;exitDy=0;" parent="2PO26OI7csFT68rK5z-M-8" source="2PO26OI7csFT68rK5z-M-19" target="2PO26OI7csFT68rK5z-M-12" edge="1">
          <mxGeometry width="50" height="50" relative="1" as="geometry">
            <mxPoint x="237.35000000000002" y="106" as="sourcePoint" />
            <mxPoint x="287.35" y="56" as="targetPoint" />
          </mxGeometry>
        </mxCell>
        <mxCell id="2PO26OI7csFT68rK5z-M-21" value="" style="endArrow=classic;html=1;exitX=0.5;exitY=1;exitDx=0;exitDy=0;" parent="2PO26OI7csFT68rK5z-M-8" source="2PO26OI7csFT68rK5z-M-18" target="2PO26OI7csFT68rK5z-M-13" edge="1">
          <mxGeometry width="50" height="50" relative="1" as="geometry">
            <mxPoint x="237.35000000000002" y="106" as="sourcePoint" />
            <mxPoint x="287.35" y="56" as="targetPoint" />
          </mxGeometry>
        </mxCell>
        <mxCell id="2PO26OI7csFT68rK5z-M-22" value="" style="endArrow=classic;html=1;exitX=0.5;exitY=1;exitDx=0;exitDy=0;" parent="2PO26OI7csFT68rK5z-M-8" source="2PO26OI7csFT68rK5z-M-17" target="2PO26OI7csFT68rK5z-M-11" edge="1">
          <mxGeometry width="50" height="50" relative="1" as="geometry">
            <mxPoint x="69.35" y="134" as="sourcePoint" />
            <mxPoint x="119.35" y="84" as="targetPoint" />
          </mxGeometry>
        </mxCell>
        <mxCell id="2PO26OI7csFT68rK5z-M-23" value="" style="endArrow=classic;html=1;fontSize=11;exitX=0.5;exitY=1;exitDx=0;exitDy=0;entryX=0.5;entryY=0;entryDx=0;entryDy=0;edgeStyle=orthogonalEdgeStyle;rounded=0;" parent="vmW0C5vPYrDvOBtsV9mp-1" source="2PO26OI7csFT68rK5z-M-7" target="2PO26OI7csFT68rK5z-M-18" edge="1">
          <mxGeometry relative="1" as="geometry">
            <mxPoint x="360" y="324" as="sourcePoint" />
            <mxPoint x="460" y="324" as="targetPoint" />
            <Array as="points">
              <mxPoint x="395" y="334" />
              <mxPoint x="248" y="334" />
            </Array>
          </mxGeometry>
        </mxCell>
        <mxCell id="2PO26OI7csFT68rK5z-M-24" value="Apply override" style="edgeLabel;resizable=0;html=1;align=center;verticalAlign=middle;" parent="2PO26OI7csFT68rK5z-M-23" connectable="0" vertex="1">
          <mxGeometry relative="1" as="geometry" />
        </mxCell>
        <mxCell id="2PO26OI7csFT68rK5z-M-25" value="" style="group" parent="vmW0C5vPYrDvOBtsV9mp-1" vertex="1" connectable="0">
          <mxGeometry x="430" y="354" width="250" height="259" as="geometry" />
        </mxCell>
        <mxCell id="2PO26OI7csFT68rK5z-M-26" value="" style="rounded=0;whiteSpace=wrap;html=1;fillColor=#f5f5f5;strokeColor=#666666;fontColor=#333333;verticalAlign=bottom;" parent="2PO26OI7csFT68rK5z-M-25" vertex="1">
          <mxGeometry x="-10" y="129" width="250" height="130" as="geometry" />
        </mxCell>
        <mxCell id="2PO26OI7csFT68rK5z-M-27" value="&lt;span style=&quot;font-size: 11px;&quot;&gt;&lt;font style=&quot;font-size: 11px;&quot;&gt;ClusterB&lt;/font&gt;&lt;/span&gt;" style="text;html=1;strokeColor=none;fillColor=none;align=center;verticalAlign=middle;whiteSpace=wrap;rounded=0;fontStyle=0;fontSize=11;container=0;" parent="2PO26OI7csFT68rK5z-M-25" vertex="1">
          <mxGeometry x="180" y="129" width="56" height="20" as="geometry" />
        </mxCell>
        <mxCell id="2PO26OI7csFT68rK5z-M-28" value="Deployment" style="rounded=0;whiteSpace=wrap;html=1;fillColor=#d5e8d4;strokeColor=#82b366;" parent="2PO26OI7csFT68rK5z-M-25" vertex="1">
          <mxGeometry x="4.050000000000024" y="153" width="78.6" height="32" as="geometry" />
        </mxCell>
        <mxCell id="2PO26OI7csFT68rK5z-M-29" value="Secret" style="rounded=0;whiteSpace=wrap;html=1;fillColor=#ffe6cc;strokeColor=#d79b00;" parent="2PO26OI7csFT68rK5z-M-25" vertex="1">
          <mxGeometry x="134.83571428571406" y="153" width="54" height="32" as="geometry" />
        </mxCell>
        <mxCell id="2PO26OI7csFT68rK5z-M-30" value="Configmap" style="rounded=0;whiteSpace=wrap;html=1;fillColor=#f8cecc;strokeColor=#b85450;" parent="2PO26OI7csFT68rK5z-M-25" vertex="1">
          <mxGeometry x="68.99999999999999" y="200" width="72" height="32" as="geometry" />
        </mxCell>
        <mxCell id="2PO26OI7csFT68rK5z-M-31" value="&lt;br&gt;" style="rounded=0;whiteSpace=wrap;html=1;container=0;" parent="2PO26OI7csFT68rK5z-M-25" vertex="1">
          <mxGeometry x="10" width="210" height="98" as="geometry" />
        </mxCell>
        <mxCell id="2PO26OI7csFT68rK5z-M-32" value="&lt;font style=&quot;font-size: 11px&quot;&gt;ExecutionSpace&lt;br style=&quot;font-size: 11px&quot;&gt;ClusterB&lt;/font&gt;" style="text;html=1;strokeColor=none;fillColor=none;align=right;verticalAlign=middle;whiteSpace=wrap;rounded=0;container=0;" parent="2PO26OI7csFT68rK5z-M-25" vertex="1">
          <mxGeometry x="63.28" y="1" width="156.72" height="25" as="geometry" />
        </mxCell>
        <mxCell id="2PO26OI7csFT68rK5z-M-33" value="work" style="rounded=0;whiteSpace=wrap;html=1;fillColor=#cce5ff;strokeColor=#36393d;container=0;verticalAlign=middle;" parent="2PO26OI7csFT68rK5z-M-25" vertex="1">
          <mxGeometry x="26.582727272727254" y="45.75" width="48.727272727272734" height="24.5" as="geometry" />
        </mxCell>
        <mxCell id="2PO26OI7csFT68rK5z-M-34" value="work" style="rounded=0;whiteSpace=wrap;html=1;fillColor=#cce5ff;strokeColor=#36393d;container=0;verticalAlign=middle;" parent="2PO26OI7csFT68rK5z-M-25" vertex="1">
          <mxGeometry x="80.63636363636363" y="45.75" width="48.727272727272734" height="24.5" as="geometry" />
        </mxCell>
        <mxCell id="2PO26OI7csFT68rK5z-M-35" value="work" style="rounded=0;whiteSpace=wrap;html=1;fillColor=#cce5ff;strokeColor=#36393d;container=0;verticalAlign=middle;" parent="2PO26OI7csFT68rK5z-M-25" vertex="1">
          <mxGeometry x="137.4720779220778" y="45.75" width="48.727272727272734" height="24.5" as="geometry" />
        </mxCell>
        <mxCell id="2PO26OI7csFT68rK5z-M-36" value="" style="endArrow=classic;startArrow=classic;html=1;fontSize=11;entryX=0.5;entryY=0;entryDx=0;entryDy=0;exitX=0.5;exitY=0;exitDx=0;exitDy=0;edgeStyle=orthogonalEdgeStyle;rounded=0;" parent="2PO26OI7csFT68rK5z-M-25" source="2PO26OI7csFT68rK5z-M-33" target="2PO26OI7csFT68rK5z-M-35" edge="1">
          <mxGeometry width="50" height="50" relative="1" as="geometry">
            <mxPoint x="-180" y="-40" as="sourcePoint" />
            <mxPoint x="-130" y="-90" as="targetPoint" />
            <Array as="points">
              <mxPoint x="51" y="30" />
              <mxPoint x="162" y="30" />
            </Array>
          </mxGeometry>
        </mxCell>
        <mxCell id="2PO26OI7csFT68rK5z-M-37" value="" style="endArrow=classic;html=1;exitX=0.5;exitY=1;exitDx=0;exitDy=0;" parent="2PO26OI7csFT68rK5z-M-25" source="2PO26OI7csFT68rK5z-M-34" target="2PO26OI7csFT68rK5z-M-30" edge="1">
          <mxGeometry x="489.4545454545455" y="544" width="50" height="50" as="geometry">
            <mxPoint x="16" y="105" as="sourcePoint" />
            <mxPoint x="66" y="55" as="targetPoint" />
          </mxGeometry>
        </mxCell>
        <mxCell id="2PO26OI7csFT68rK5z-M-38" value="" style="endArrow=classic;html=1;exitX=0.5;exitY=1;exitDx=0;exitDy=0;entryX=0.5;entryY=0;entryDx=0;entryDy=0;" parent="2PO26OI7csFT68rK5z-M-25" source="2PO26OI7csFT68rK5z-M-35" target="2PO26OI7csFT68rK5z-M-29" edge="1">
          <mxGeometry x="489.4545454545455" y="544" width="50" height="50" as="geometry">
            <mxPoint x="16" y="105" as="sourcePoint" />
            <mxPoint x="66" y="55" as="targetPoint" />
          </mxGeometry>
        </mxCell>
        <mxCell id="2PO26OI7csFT68rK5z-M-39" value="" style="endArrow=classic;html=1;" parent="2PO26OI7csFT68rK5z-M-25" edge="1">
          <mxGeometry x="489.4545454545455" y="544" width="50" height="50" as="geometry">
            <mxPoint x="51" y="70" as="sourcePoint" />
            <mxPoint x="51" y="153" as="targetPoint" />
          </mxGeometry>
        </mxCell>
        <mxCell id="2PO26OI7csFT68rK5z-M-40" value="Resource Template&lt;br&gt;&lt;font style=&quot;font-size: 12px&quot;&gt;(Deployment / Service / Comfigmap / Secret ... )&lt;br&gt;&lt;b&gt;Exactly same with K8s APIs&lt;/b&gt;&lt;br&gt;&lt;/font&gt;" style="rounded=0;whiteSpace=wrap;html=1;fillColor=#cce5ff;strokeColor=#36393d;fontSize=14;" parent="vmW0C5vPYrDvOBtsV9mp-1" vertex="1">
          <mxGeometry x="120" y="134" width="270" height="70" as="geometry" />
        </mxCell>
        <mxCell id="2PO26OI7csFT68rK5z-M-41" value="" style="endArrow=classic;html=1;fontSize=11;edgeStyle=orthogonalEdgeStyle;rounded=0;exitX=0.5;exitY=1;exitDx=0;exitDy=0;" parent="vmW0C5vPYrDvOBtsV9mp-1" source="2PO26OI7csFT68rK5z-M-7" target="2PO26OI7csFT68rK5z-M-34" edge="1">
          <mxGeometry relative="1" as="geometry">
            <mxPoint x="400" y="314" as="sourcePoint" />
            <mxPoint x="257.8175324675324" y="410.75" as="targetPoint" />
            <Array as="points">
              <mxPoint x="395" y="334" />
              <mxPoint x="537" y="334" />
            </Array>
          </mxGeometry>
        </mxCell>
        <mxCell id="2PO26OI7csFT68rK5z-M-42" value="Apply override" style="edgeLabel;resizable=0;html=1;align=center;verticalAlign=middle;" parent="2PO26OI7csFT68rK5z-M-41" connectable="0" vertex="1">
          <mxGeometry relative="1" as="geometry" />
        </mxCell>
        <mxCell id="2PO26OI7csFT68rK5z-M-43" value="Override Policy" style="rounded=0;whiteSpace=wrap;html=1;fillColor=#cce5ff;strokeColor=#36393d;" parent="vmW0C5vPYrDvOBtsV9mp-1" vertex="1">
          <mxGeometry x="532" y="264" width="112" height="48.25" as="geometry" />
        </mxCell>
      </root>
    </mxGraphModel>
  </diagram>
</mxfile>
